<?xml version="1.0" encoding="utf-8"?>
<!-- Generator: Adobe Illustrator 24.1.2, SVG Export Plug-In . SVG Version: 6.00 Build 0)  -->
<svg version="1.1" id="Layer_1" xmlns="http://www.w3.org/2000/svg" xmlns:xlink="http://www.w3.org/1999/xlink" x="0px" y="0px"
	 viewBox="0 0 670 150" style="enable-background:new 0 0 670 150;" xml:space="preserve">
<style type="text/css">
	.st0{fill:#FFFFFF;}
	.st1{font-family:'Arial';}
	.st2{font-size:93px;}
</style>
<path class="st0" d="M155.06,62.74c-6.04-44.91-58.01-71.3-97.71-49.62c-4.17,2.28-7.63,5.32-9.76,9.62
	c-3.45,6.98,0.62,13.59,8.39,13.76c4.84,0.11,9.13-1.66,13.08-4.15c6.82-4.29,14.25-6.43,22.19-7.21
	c16.71-1.65,32.61,6.42,39.34,20.33c-13.47-2.98-24.5,1.34-32.14,12.53c-1.74,2.54-3.11,5.34-4.63,8.02
	c-1.56,2.75-3.2,5.48-6.95,5.21c-3.83-0.28-4.85-3.43-5.94-6.31c-1.42-3.76-1.92-7.74-2.54-11.68c-0.58-3.69-1.08-7.43-2.85-10.78
	c-1.63-3.08-3.54-3.44-6.22-1.22c-2,1.66-3.7,3.67-4.76,6.02c-0.96,2.13-2.15,2.79-4.47,2.25c-5.32-1.24-10.75-1.39-16.15-0.7
	c-2.65,0.34-3.81-0.2-4.54-3.02c-0.82-3.19-1.04-8.07-4.97-8.32c-4.1-0.26-5.69,4.31-7.26,7.64c-20.18,42.72,11.84,94.24,59.07,95.1
	C129.06,140.98,160.78,105.29,155.06,62.74z M38.43,71.93c-5.41,0-5.4-8.4,0-8.4C43.84,63.53,43.84,71.93,38.43,71.93z M60.34,72.15
	c-5.41,0-5.4-8.4,0-8.4C65.76,63.75,65.75,72.15,60.34,72.15z"/>
<text transform="matrix(1 0 0 1 178.229 106.9424)" class="st0 st1 st2">cat-tinder</text>
</svg>
