<?xml version="1.0" encoding="utf-8"?>
<!-- Generator: Adobe Illustrator 24.1.2, SVG Export Plug-In . SVG Version: 6.00 Build 0)  -->
<svg version="1.1" id="Layer_1" xmlns="http://www.w3.org/2000/svg" xmlns:xlink="http://www.w3.org/1999/xlink" x="0px" y="0px"
	 viewBox="0 0 670 150" style="enable-background:new 0 0 670 150;" xml:space="preserve">
<style type="text/css">
	.st0{fill:#FFFFFF;}
</style>
<path class="st0" d="M155.06,62.74c-6.04-44.91-58.01-71.3-97.71-49.62c-4.17,2.28-7.63,5.32-9.76,9.62
	c-3.45,6.98,0.62,13.59,8.39,13.76c4.84,0.11,9.13-1.66,13.08-4.15c6.82-4.29,14.25-6.43,22.19-7.21
	c16.71-1.65,32.61,6.42,39.34,20.33c-13.47-2.98-24.5,1.34-32.14,12.53c-1.74,2.54-3.11,5.34-4.63,8.02
	c-1.56,2.75-3.2,5.48-6.95,5.21c-3.83-0.28-4.85-3.43-5.94-6.31c-1.42-3.76-1.92-7.74-2.54-11.68c-0.58-3.69-1.08-7.43-2.85-10.78
	c-1.63-3.08-3.54-3.44-6.22-1.22c-2,1.66-3.7,3.67-4.76,6.02c-0.96,2.13-2.15,2.79-4.47,2.25c-5.32-1.24-10.75-1.39-16.15-0.7
	c-2.65,0.34-3.81-0.2-4.54-3.02c-0.82-3.19-1.04-8.07-4.97-8.32c-4.1-0.26-5.69,4.31-7.26,7.64c-20.18,42.72,11.84,94.24,59.07,95.1
	C129.06,140.98,160.78,105.29,155.06,62.74z M38.43,71.93c-5.41,0-5.4-8.4,0-8.4C43.84,63.53,43.84,71.93,38.43,71.93z M60.34,72.15
	c-5.41,0-5.4-8.4,0-8.4C65.76,63.75,65.75,72.15,60.34,72.15z"/>
<g>
	<path class="st0" d="M213.03,88.44l12.5,6.3c-2.53,4.2-5.93,7.5-10.2,9.9c-4.27,2.4-9.03,3.6-14.3,3.6c-8.13,0-14.93-2.73-20.4-8.2
		c-5.47-5.47-8.2-12.43-8.2-20.9c0-8.47,2.73-15.42,8.2-20.85c5.47-5.43,12.27-8.15,20.4-8.15c5.2,0,9.93,1.18,14.2,3.55
		c4.27,2.37,7.67,5.62,10.2,9.75l-12.4,6.5c-2.8-4.53-6.8-6.8-12-6.8c-4.13,0-7.58,1.5-10.35,4.5c-2.77,3-4.15,6.83-4.15,11.5
		c0,4.67,1.38,8.52,4.15,11.55c2.77,3.03,6.22,4.55,10.35,4.55C206.23,95.24,210.23,92.98,213.03,88.44z"/>
	<path class="st0" d="M259.03,50.14c5.4,0,9.95,1.78,13.65,5.35c3.7,3.57,5.55,9.15,5.55,16.75v0.3v34.4h-14.6v-7.1
		c-4.07,5.6-9.93,8.4-17.6,8.4c-4.53,0-8.58-1.37-12.15-4.1c-3.57-2.73-5.35-6.53-5.35-11.4c0-6.46,2.23-11.38,6.7-14.75
		c4.47-3.37,9.87-5.05,16.2-5.05h12.3v-0.6c0-5.87-2.53-8.8-7.6-8.8c-2.6,0-5.18,0.37-7.75,1.1c-2.57,0.73-4.48,1.47-5.75,2.2
		l-1.9,1.1l-5.5-10.7c0.27-0.2,0.63-0.45,1.1-0.75c0.47-0.3,1.48-0.87,3.05-1.7c1.57-0.83,3.22-1.57,4.95-2.2
		c1.73-0.63,3.93-1.2,6.6-1.7C253.59,50.39,256.29,50.14,259.03,50.14z M252.03,82.64c-5.87,0-8.8,2.6-8.8,7.8
		c0,2.13,0.72,3.82,2.15,5.05c1.43,1.23,3.48,1.85,6.15,1.85c3.47,0,6.35-1.52,8.65-4.55c2.3-3.03,3.45-5.92,3.45-8.65v-1.5H252.03z
		"/>
	<path class="st0" d="M291.53,36.24h14.1v15.1h14.4v13.4h-14.4v14v0.4v5.2c0,1.54,0.07,2.87,0.2,4c0.13,1.13,0.4,2.27,0.8,3.4
		c0.4,1.13,1.03,2,1.9,2.6c0.87,0.6,1.96,0.9,3.3,0.9c1.53,0,3-0.25,4.4-0.75s2.4-1.02,3-1.55l1-0.7l4.6,10.6
		c-0.33,0.4-0.85,0.9-1.55,1.5c-0.7,0.6-2.27,1.4-4.7,2.4s-5.08,1.5-7.95,1.5c-3.4,0-6.33-0.57-8.8-1.7
		c-2.47-1.13-4.35-2.55-5.65-4.25c-1.3-1.7-2.32-3.93-3.05-6.7c-0.73-2.77-1.18-5.33-1.35-7.7c-0.17-2.37-0.25-5.28-0.25-8.75v-14.4
		h-9.1v-13.4h9.1V36.24z"/>
	<path class="st0" d="M328.93,65.54h37.2v14.5h-37.2V65.54z"/>
	<path class="st0" d="M379.33,36.24h14.1v15.1h14.4v13.4h-14.4v14v0.4v5.2c0,1.54,0.07,2.87,0.2,4c0.13,1.13,0.4,2.27,0.8,3.4
		c0.4,1.13,1.03,2,1.9,2.6c0.87,0.6,1.97,0.9,3.3,0.9c1.53,0,3-0.25,4.4-0.75c1.4-0.5,2.4-1.02,3-1.55l1-0.7l4.6,10.6
		c-0.33,0.4-0.85,0.9-1.55,1.5c-0.7,0.6-2.27,1.4-4.7,2.4c-2.43,1-5.08,1.5-7.95,1.5c-3.4,0-6.33-0.57-8.8-1.7
		c-2.47-1.13-4.35-2.55-5.65-4.25c-1.3-1.7-2.32-3.93-3.05-6.7c-0.73-2.77-1.18-5.33-1.35-7.7c-0.17-2.37-0.25-5.28-0.25-8.75v-14.4
		h-9.1v-13.4h9.1V36.24z"/>
	<path class="st0" d="M418.93,33.04c1.47-1.4,3.33-2.1,5.6-2.1c2.27,0,4.13,0.7,5.6,2.1c1.47,1.4,2.2,3.3,2.2,5.7
		c0,2.4-0.73,4.3-2.2,5.7c-1.47,1.4-3.33,2.1-5.6,2.1c-2.27,0-4.13-0.7-5.6-2.1c-1.47-1.4-2.2-3.3-2.2-5.7
		C416.73,36.34,417.46,34.44,418.93,33.04z M417.23,51.34h14.6v55.6h-14.6V51.34z"/>
	<path class="st0" d="M472.43,50.14c5.07,0,9.55,1.87,13.45,5.6c3.9,3.73,5.85,8.67,5.85,14.8v0.2v36.2h-14.6v-30.3
		c0-8.73-3.2-13.1-9.6-13.1c-3.13,0-5.85,0.68-8.15,2.05c-2.3,1.37-3.95,3.25-4.95,5.65v35.7h-14.6v-55.6h14.6v7.6
		c2.13-2.73,4.85-4.88,8.15-6.45C465.88,50.93,469.16,50.14,472.43,50.14z"/>
	<path class="st0" d="M540.63,31.44h14.6v75.5h-14.6v-4.8c-4.07,4.07-9.4,6.1-16,6.1c-8,0-14.5-2.7-19.5-8.1c-5-5.4-7.5-12.4-7.5-21
		c0-8.6,2.5-15.58,7.5-20.95c5-5.37,11.5-8.05,19.5-8.05c6.67,0,12,2,16,6V31.44z M536.53,67.64c-2.73-3-6.17-4.5-10.3-4.5
		c-4.13,0-7.57,1.5-10.3,4.5c-2.73,3-4.1,6.83-4.1,11.5c0,4.67,1.37,8.5,4.1,11.5c2.73,3,6.17,4.5,10.3,4.5
		c4.13,0,7.57-1.5,10.3-4.5c2.73-3,4.1-6.83,4.1-11.5C540.63,74.48,539.26,70.64,536.53,67.64z"/>
	<path class="st0" d="M589.93,50.14c7.27,0,13.38,2.45,18.35,7.35c4.97,4.9,7.45,11.92,7.45,21.05c0,2-0.07,3.53-0.2,4.6h-39.8
		c0.67,3.67,2.28,6.58,4.85,8.75c2.57,2.17,5.62,3.25,9.15,3.25c5.27,0,9.27-2.23,12-6.7l12.5,6.3c-2.53,4.2-5.93,7.5-10.2,9.9
		c-4.27,2.4-9.03,3.6-14.3,3.6c-8.13,0-14.93-2.73-20.4-8.2c-5.47-5.47-8.2-12.43-8.2-20.9c0-8.47,2.77-15.42,8.3-20.85
		C574.96,52.86,581.79,50.14,589.93,50.14z M589.73,63.14c-2.87,0-5.47,0.78-7.8,2.35c-2.33,1.57-4.07,3.72-5.2,6.45h24.4
		c0-2.07-0.88-4.05-2.65-5.95C596.71,64.09,593.79,63.14,589.73,63.14z"/>
	<path class="st0" d="M654.22,50.14v14.5c-6.2,0-10.75,1.67-13.65,5c-2.9,3.33-4.35,7.23-4.35,11.7v25.6h-14.6v-55.6h14.6v8
		c2-2.87,4.58-5.12,7.75-6.75C647.14,50.96,650.56,50.14,654.22,50.14z"/>
</g>
</svg>
